<svg width="91" height="73" viewBox="0 0 91 73" fill="none" xmlns="http://www.w3.org/2000/svg">
<path d="M33.4888 48.3677L49.0218 71.9287V52.5667L33.4888 28.7947V48.3677Z" fill="black"/>
<path d="M12 55.9647L31.489 46.6217V27.0617L12 36.9017V55.9647Z" fill="black"/>
<path d="M79.7821 16.5267C79.5041 16.1017 78.9511 15.9497 78.4941 16.1807L58.0011 26.5287L40.9631 0.453724C40.6851 0.0287243 40.1331 -0.123275 39.6751 0.107725L1.43311 19.4177L11.5441 34.8907L32.0381 24.5437C32.2361 24.4447 32.4931 24.4217 32.7071 24.4707C32.9411 24.5247 33.1921 24.6857 33.3261 24.8897L50.3701 50.9737L89.4101 31.2607L79.7821 16.5267Z" fill="black"/>
<path d="M51.022 52.8847V72.2467L89.508 53.0557C89.847 52.8867 90.062 52.5397 90.062 52.1607V33.1707L51.022 52.8847Z" fill="black"/>
<path d="M0.0209999 20.9398L0 39.6827C0 39.8767 0.0570002 40.0677 0.162 40.2297L10 55.3128V36.2118C10 36.2048 10.004 36.1978 10.004 36.1908L0.0240002 20.9167C0.0240002 20.9247 0.0209999 20.9318 0.0209999 20.9398Z" fill="black"/>
</svg>
