<svg width="1440" height="184" viewBox="0 0 1440 184" fill="none" xmlns="http://www.w3.org/2000/svg">
<path d="M-1555 56.3259C-1469.56 35.7052 -1249.53 6.83611 -1052.95 56.3259C-1047.16 56.3259 -931.527 106.589 -287.818 87.257C-283.964 85.3238 217.127 31.1944 489.836 94.9898C511.036 94.9898 932.145 239.013 1519 94.9898" stroke="black"/>
<path d="M-156.355 88.2904C-108.604 74.6934 14.9359 53.2743 127.086 76.3745C130.35 76.2372 196.82 101.692 559.778 75.5683C561.909 74.3922 843.53 32.1302 998.996 61.4496C1010.96 60.9464 1252.1 131.755 1580.02 37.0231" stroke="black"/>
<path d="M-81 62.5C-36.6667 51.8333 77.5 36.9 179.5 62.5C182.5 62.5 242.5 88.5 576.5 78.5C578.5 77.5 838.5 49.5 980 82.5C991 82.5 1209.5 157 1514 82.5" stroke="black"/>
<path d="M-82.3127 127.777C-36.4618 114.721 82.1616 94.1541 189.848 116.335C192.983 116.203 256.807 140.645 605.32 115.561C607.366 114.432 877.779 73.8515 1027.06 102.004C1038.55 101.521 1270.09 169.511 1584.96 78.5497" stroke="black"/>
</svg>
