<svg width="90" height="26" xmlns="http://www.w3.org/2000/svg" xmlns:xlink="http://www.w3.org/1999/xlink"><defs><path d="M3.798 13.536a5.59 5.59 0 0 1-2.178-.414c-.66-.276-1.2-.69-1.62-1.242l1.584-1.476c.264.348.573.621.927.819.354.198.801.297 1.341.297.588 0 1.005-.105 1.251-.315.246-.21.369-.453.369-.729a.719.719 0 0 0-.189-.486c-.126-.144-.357-.24-.693-.288l-.954-.126c-.816-.108-1.44-.369-1.872-.783-.432-.414-.648-.999-.648-1.755 0-.444.078-.87.234-1.278.156-.408.396-.768.72-1.08a3.544 3.544 0 0 1 1.224-.747c.492-.186 1.074-.279 1.746-.279.732 0 1.395.123 1.989.369A3.896 3.896 0 0 1 8.55 5.148L6.966 6.624a2.596 2.596 0 0 0-2.034-.954c-.42 0-.753.093-.999.279-.246.186-.369.423-.369.711 0 .18.063.342.189.486.126.144.357.24.693.288l.954.126c.816.108 1.44.369 1.872.783.432.414.648.993.648 1.737a3.4 3.4 0 0 1-.261 1.314c-.174.42-.435.789-.783 1.107-.348.318-.78.57-1.296.756-.516.186-1.11.279-1.782.279Z" id="a"/><path d="M12.12 13.32c-1.476 0-2.214-.594-2.214-1.782 0-.096.006-.216.018-.36a4.32 4.32 0 0 1 .054-.414l.972-4.878H9.618l.396-2.016h.648c.384 0 .642-.078.774-.234.132-.156.228-.396.288-.72l.324-1.602h2.34l-.504 2.556h1.89l-.414 2.016h-1.89l-1.08 5.418h1.71l-.396 2.016H12.12Z" id="b"/><path d="M19.506 13.536c-.516 0-.999-.075-1.449-.225-.45-.15-.843-.39-1.179-.72-.336-.33-.6-.753-.792-1.269-.192-.516-.288-1.14-.288-1.872 0-.84.126-1.614.378-2.322a5.634 5.634 0 0 1 1.053-1.836c.45-.516.981-.918 1.593-1.206a4.633 4.633 0 0 1 1.998-.432c.444 0 .861.057 1.251.171.39.114.732.279 1.026.495.294.216.537.474.729.774.192.3.318.636.378 1.008l-2.124.81c-.108-.372-.255-.669-.441-.891-.186-.222-.507-.333-.963-.333-1.044 0-1.698.66-1.962 1.98L18.39 9.27c-.06.276-.09.528-.09.756 0 .444.111.801.333 1.071.222.27.585.405 1.089.405.24 0 .45-.036.63-.108.18-.072.339-.174.477-.306a2.77 2.77 0 0 0 .387-.468c.12-.18.246-.384.378-.612l1.926.9c-.42.876-.969 1.533-1.647 1.971-.678.438-1.467.657-2.367.657Z" id="c"/><path d="M27.198 0h2.52l-1.566 7.83h.126l1.296-1.62 2.268-2.34h2.934l-3.834 3.834 1.296 3.6h1.098l-.432 2.016h-1.35c-.888 0-1.482-.474-1.782-1.422l-.792-2.466-1.422 1.332-.504 2.556h-2.52L27.198 0Z" id="d"/></defs><g fill="none" fill-rule="evenodd"><path d="M86.339.5c.95 0 1.808.387 2.43 1.013a3.456 3.456 0 0 1 1.007 2.444L87.459 22.48a3.456 3.456 0 0 1-1.138 2.158 3.418 3.418 0 0 1-2.272.863H43.214a3.416 3.416 0 0 1-2.43-1.013 3.46 3.46 0 0 1-.965-2.984l2.838-18.085a3.455 3.455 0 0 1 1.164-2.09A3.419 3.419 0 0 1 46.05.5H86.34Z" fill="#000"/><path fill="#20D860" fill-rule="nonzero" d="m79.897 6.785-1.293-.706 1.293-.708.708-1.293.707 1.293 1.293.708-1.293.706-.707 1.294z"/><g fill-rule="nonzero"><path d="m53.148 16.938 1.68-8.376h3.156c.84 0 1.49.196 1.95.588.46.392.69.944.69 1.656a3.2 3.2 0 0 1-.24 1.254c-.16.38-.384.704-.672.972-.299.275-.65.487-1.032.624-.4.148-.836.222-1.308.222H55.5l-.612 3.06h-1.74Zm2.664-4.596H57.6c.272 0 .506-.072.702-.216.196-.144.326-.364.39-.66l.096-.45c.024-.116.036-.206.036-.27a.627.627 0 0 0-.186-.462c-.124-.124-.318-.186-.582-.186h-1.8l-.444 2.244Z" fill="#FFF"/><path d="m53.148 16.938 1.68-8.376h3.156c.84 0 1.49.196 1.95.588.46.392.69.944.69 1.656a3.2 3.2 0 0 1-.24 1.254c-.16.38-.384.704-.672.972-.299.275-.65.487-1.032.624-.4.148-.836.222-1.308.222H55.5l-.612 3.06h-1.74Zm2.664-4.596H57.6c.272 0 .506-.072.702-.216.196-.144.326-.364.39-.66l.096-.45c.024-.116.036-.206.036-.27a.627.627 0 0 0-.186-.462c-.124-.124-.318-.186-.582-.186h-1.8l-.444 2.244Z" fill="#20D860"/><path d="M62.532 16.938h-1.74l1.68-8.376h3.264c.8 0 1.422.188 1.866.564.444.376.666.908.666 1.596 0 .312-.044.618-.132.918a2.992 2.992 0 0 1-1.038 1.524c-.252.196-.546.35-.882.462l1.008 3.312h-1.86l-.828-3.108h-1.38l-.624 3.108Zm2.712-4.596c.272 0 .506-.072.702-.216.196-.144.326-.364.39-.66l.096-.45c.024-.116.036-.206.036-.27a.627.627 0 0 0-.186-.462c-.124-.124-.318-.186-.582-.186h-1.8l-.444 2.244h1.788Z" fill="#FFF"/><path d="M62.532 16.938h-1.74l1.68-8.376h3.264c.8 0 1.422.188 1.866.564.444.376.666.908.666 1.596 0 .312-.044.618-.132.918a2.992 2.992 0 0 1-1.038 1.524c-.252.196-.546.35-.882.462l1.008 3.312h-1.86l-.828-3.108h-1.38l-.624 3.108Zm2.712-4.596c.272 0 .506-.072.702-.216.196-.144.326-.364.39-.66l.096-.45c.024-.116.036-.206.036-.27a.627.627 0 0 0-.186-.462c-.124-.124-.318-.186-.582-.186h-1.8l-.444 2.244h1.788Z" fill="#20D860"/><path d="M72.084 17.082c-.4 0-.782-.066-1.146-.198-.361-.13-.69-.34-.96-.612a2.973 2.973 0 0 1-.66-1.056c-.164-.428-.246-.938-.246-1.53 0-.72.108-1.4.324-2.04.216-.64.516-1.2.9-1.68s.84-.858 1.368-1.134a3.674 3.674 0 0 1 1.728-.414c.4 0 .782.066 1.146.198.364.132.684.336.96.612.276.276.496.628.66 1.056.164.428.246.938.246 1.53 0 .72-.108 1.4-.324 2.04-.216.64-.516 1.2-.9 1.68s-.84.858-1.368 1.134a3.674 3.674 0 0 1-1.728.414Zm.12-1.548c.56 0 1.02-.188 1.38-.564.36-.376.608-.904.744-1.584l.252-1.26c.04-.206.06-.415.06-.624 0-1.024-.456-1.536-1.368-1.536-.56 0-1.02.188-1.38.564-.36.376-.608.904-.744 1.584l-.252 1.26c-.024.12-.04.232-.048.336-.008.104-.012.2-.012.288 0 1.024.456 1.536 1.368 1.536Z" fill="#FFF"/><path d="M72.084 17.082c-.4 0-.782-.066-1.146-.198-.361-.13-.69-.34-.96-.612a2.973 2.973 0 0 1-.66-1.056c-.164-.428-.246-.938-.246-1.53 0-.72.108-1.4.324-2.04.216-.64.516-1.2.9-1.68s.84-.858 1.368-1.134a3.674 3.674 0 0 1 1.728-.414c.4 0 .782.066 1.146.198.364.132.684.336.96.612.276.276.496.628.66 1.056.164.428.246.938.246 1.53 0 .72-.108 1.4-.324 2.04-.216.64-.516 1.2-.9 1.68s-.84.858-1.368 1.134a3.674 3.674 0 0 1-1.728.414Zm.12-1.548c.56 0 1.02-.188 1.38-.564.36-.376.608-.904.744-1.584l.252-1.26c.04-.206.06-.415.06-.624 0-1.024-.456-1.536-1.368-1.536-.56 0-1.02.188-1.38.564-.36.376-.608.904-.744 1.584l-.252 1.26c-.024.12-.04.232-.048.336-.008.104-.012.2-.012.288 0 1.024.456 1.536 1.368 1.536Z" fill="#20D860"/></g><g fill="#000" fill-rule="nonzero"><g transform="translate(0 5.982)"><use xlink:href="#a"/><use xlink:href="#a"/></g><g transform="translate(0 5.982)"><use xlink:href="#b"/><use xlink:href="#b"/></g><g transform="translate(0 5.982)"><use xlink:href="#c"/><use xlink:href="#c"/></g><g transform="translate(0 5.982)"><use xlink:href="#d"/><use xlink:href="#d"/></g></g></g></svg>