<svg xmlns="http://www.w3.org/2000/svg" width="56" height="56"><g fill="none" fill-rule="nonzero"><path fill="#8E78E7" d="M28 55.5C12.806 55.5.5 43.194.5 28S12.806.5 28 .5 55.5 12.806 55.5 28 43.194 55.5 28 55.5Z"/><path fill="#FFF" d="M19.872 26.96h13.745l-4.082-4.082a1.039 1.039 0 1 1 1.47-1.47l5.856 5.855c.048.049.092.103.13.16.018.025.03.053.043.077.018.035.039.067.053.102.016.037.024.074.035.112.008.027.019.053.024.081a1.02 1.02 0 0 1 0 .41c-.005.026-.016.05-.023.076-.01.04-.02.08-.036.117-.013.032-.031.06-.047.089-.015.03-.03.06-.048.09-.033.05-.072.095-.113.138l-.016.02-5.859 5.857a1.039 1.039 0 1 1-1.469-1.47l4.083-4.082H19.872a1.04 1.04 0 0 1 0-2.08Z"/></g></svg>