<?xml version="1.0" encoding="UTF-8"?>
<svg width="21.987px" height="12.881px" viewBox="0 0 21.987 12.881" version="1.1" xmlns="http://www.w3.org/2000/svg" xmlns:xlink="http://www.w3.org/1999/xlink">
    <title>Shape</title>
    <g id="Page-1" stroke="none" stroke-width="1" fill="none" fill-rule="evenodd">
        <g id="font2" fill="#7C7C7C" fill-rule="nonzero">
            <path d="M10.922,10.371 L7.106,0 L5.686,0 L1.895,10.28 C1.715,10.755 1.555,11.111 1.415,11.35 C1.275,11.588 1.1,11.756 0.891,11.852 C0.681,11.949 0.385,12.018 0,12.06 L0,12.691 L4.05,12.691 L4.05,12.06 C3.581,12.001 3.24,11.92 3.03,11.817 C2.83182815,11.7331853 2.70468546,11.5371241 2.709,11.322 C2.706,11.095 2.779,10.762 2.929,10.324 L6.035,1.371 L5.752,1.371 L8.926,10.361 C9.078,10.783 9.15,11.106 9.141,11.331 C9.13926505,11.5449172 9.01026566,11.7372364 8.813,11.82 C8.603,11.922 8.264,12.001 7.799,12.059 L7.799,12.691 L12.767,12.691 L12.767,12.06 C12.405,12.018 12.12,11.951 11.911,11.859 C11.6905759,11.7559759 11.5065032,11.5886371 11.383,11.379 C11.24,11.152 11.086,10.816 10.923,10.371 L10.922,10.371 Z M3.238,8.281 L9.012,8.281 L8.712,7.495 L3.522,7.495 L3.238,8.281 Z M16.007,12.881 C16.439,12.881 16.842,12.822 17.215,12.705 C17.588,12.589 17.917,12.432 18.202,12.236 C18.486,12.04 18.715,11.83 18.887,11.606 C18.95,11.869 19.059,12.092 19.213,12.274 C19.367,12.456 19.56,12.594 19.791,12.688 C20.021,12.782 20.283,12.828 20.575,12.828 C20.882,12.828 21.157,12.786 21.398,12.7 C21.6045134,12.6306462 21.8021933,12.5373439 21.987,12.422 L21.987,11.84 C21.828742,11.9028275 21.6591632,11.9321122 21.489,11.926 C21.2406721,11.9314646 20.9988837,11.8461275 20.809,11.686 C20.619,11.526 20.525,11.251 20.525,10.858 L20.525,6.471 C20.525,5.531 20.233,4.841 19.649,4.398 C19.066,3.956 18.279,3.734 17.287,3.734 C16.635,3.734 16.034,3.82 15.487,3.993 C14.939,4.165 14.5,4.403 14.171,4.709 C13.841,5.014 13.677,5.367 13.677,5.767 C13.677,6.05 13.774,6.283 13.968,6.463 C14.162,6.643 14.398,6.733 14.675,6.733 C14.954,6.733 15.189,6.646 15.38,6.471 C15.5683557,6.302847 15.6732997,6.0604156 15.667,5.808 C15.6707583,5.56056547 15.5761683,5.32175274 15.404,5.144 C15.2465498,4.96642337 15.0203253,4.86515054 14.783,4.866 C14.551,4.866 14.351,4.972 14.182,5.186 C14.012,5.399 13.927,5.653 13.926,5.949 L14.35,5.949 C14.438,5.65 14.594,5.401 14.816,5.202 C15.039,5.003 15.31,4.854 15.632,4.755 C15.953,4.656 16.306,4.607 16.688,4.607 C17.318,4.607 17.832,4.761 18.231,5.07 C18.629,5.379 18.828,5.928 18.828,6.718 L18.828,10.958 C18.6217686,11.2519215 18.3421599,11.48671 18.017,11.639 C17.6576838,11.8099006 17.2638463,11.8957852 16.866,11.89 C16.366,11.89 15.955,11.754 15.636,11.483 C15.316,11.211 15.156,10.833 15.156,10.347 C15.156,10.027 15.233,9.751 15.387,9.518 C15.542,9.286 15.793,9.086 16.14,8.919 C16.487,8.752 16.948,8.604 17.523,8.474 L19.594,8.03 L19.594,7.265 L16.767,7.885 C15.976,8.055 15.333,8.265 14.839,8.512 C14.344,8.76 13.982,9.06 13.751,9.412 C13.521,9.764 13.405,10.177 13.405,10.652 C13.405,11.302 13.652,11.835 14.147,12.253 C14.642,12.671 15.262,12.881 16.007,12.881 L16.007,12.881 Z" id="Shape"></path>
        </g>
    </g>
</svg>