<?xml version="1.0" encoding="UTF-8"?>
<svg width="20.3921879px" height="13.3664875px" viewBox="0 0 20.3921879 13.3664875" version="1.1" xmlns="http://www.w3.org/2000/svg" xmlns:xlink="http://www.w3.org/1999/xlink">
    <title>Shape</title>
    <g id="Page-1" stroke="none" stroke-width="1" fill="none" fill-rule="evenodd">
        <g id="font3" fill="#7C7C7C" fill-rule="nonzero">
            <path d="M10.01,0.0286021575 C10.15,-0.0973978425 10.584,0.224602158 10.486,0.378602158 L10.458,0.420602158 L10.444,0.420602158 C10.43,0.672602158 10.416,0.938602158 10.416,1.19060216 C10.416,3.13660216 10.822,5.12460216 11.41,8.14860216 C12.405,8.03760216 13.722,7.85360216 14.326,7.77760216 C14.37,7.73660216 14.42,7.69760216 14.476,7.65860216 C14.854,7.40660216 15.33,7.28060216 15.82,7.28060216 C16.212,7.28060216 16.604,7.36460216 16.954,7.51860216 L16.968,7.51860216 L17.206,7.19660216 C17.29,7.04260216 17.766,7.35060216 17.668,7.51860216 C17.598,7.72860216 17.472,7.98060216 17.444,8.24660216 C17.43,8.48460216 17.5,8.76460216 17.752,8.83460216 C18.466,8.97460216 19.67,8.26060216 20.174,7.70060216 C20.412,7.46260216 20.622,7.81260216 19.852,8.58260216 C19.502,8.93260216 18.536,9.38060216 17.948,9.24060216 C17.486,9.12860216 17.136,8.86260216 16.954,8.35860216 C16.562,8.70860216 15.638,9.42260216 14.896,9.42260216 C14.7179486,9.42603187 14.5427737,9.37737215 14.392,9.28260216 C14.112,9.07260216 13.972,8.80660216 13.972,8.51260216 C13.972,8.42860216 13.983,8.34360216 14.008,8.26060216 C13.4,8.40460216 12.298,8.51860216 11.494,8.58260216 C11.83,10.1366022 12.208,11.5366022 12.628,13.1046022 C12.656,13.2026022 12.32,13.5106022 12.18,13.2866022 C11.046,11.3126022 9.436,9.60460216 7.7,8.68060216 L7.658,8.66660216 C7.0273851,8.65477659 6.39717759,8.62676737 5.768,8.58260216 C3.262,12.1806022 2.086,13.4546022 0.98,13.1186022 C0.868,13.0066022 0.854,12.8666022 0.994,12.8806022 C2.008,12.9656022 3.282,11.2806022 4.555,9.43360216 L4.861,8.98760216 L5.166,8.54060216 C2.044,8.24660216 0.532,7.57460216 0.154,7.01460216 C0.0558056371,6.88572585 0.00179860933,6.7286145 -2.22044605e-16,6.56660216 C-2.22044605e-16,6.32860216 0.14,6.13260216 0.406,6.09060216 C0.651340384,6.04991957 0.90129959,6.04520335 1.148,6.07660216 C1.848,6.13260216 3.78,6.49660216 5.922,7.40660216 C7.43874403,5.05780779 8.79065834,2.606586 9.968,0.0706021575 L9.982,0.0566021575 L10.01,0.0566021575 L10.01,0.0286021575 Z M11.004,8.62460216 L10.794,8.62460216 C9.856,8.63860216 9.016,8.69460216 8.386,8.69460216 C9.506,9.40860216 10.584,10.2906022 11.48,11.3826022 L11.816,11.7886022 C11.5224642,10.7399371 11.2517337,9.68502177 11.004,8.62460216 L11.004,8.62460216 Z M16.17,7.72860216 C15.47,7.72860216 14.546,7.99460216 14.392,8.63860216 C14.35,8.80660216 14.434,8.96060216 14.644,8.97460216 C15.316,8.89060216 16.226,8.31660216 16.716,7.79860216 C16.5381165,7.75011316 16.3543625,7.72655495 16.17,7.72860216 Z M9.898,1.31660216 C8.904,3.57060216 7.896,5.15360216 6.566,7.43460216 L6.426,7.63060216 C6.832,7.82660216 7.252,8.03660216 7.658,8.26060216 C8.414,8.28860216 9.576,8.21860216 10.892,8.19060216 L10.906,8.19060216 C10.416,6.03460216 9.87,2.82860216 9.898,1.31660216 L9.898,1.31660216 Z M6.244,7.89660216 C6.18677591,7.9953572 6.12120321,8.0890325 6.048,8.17660216 C6.314,8.19060216 6.58,8.19060216 6.832,8.19060216 L6.244,7.89660216 Z M1.344,6.42660216 C1.162,6.39860216 0.336,6.37060216 0.532,6.80460216 C0.798,7.28060216 3.122,7.93860216 5.432,8.13460216 L5.74,7.67260216 C3.612,6.72060216 1.96,6.49660216 1.344,6.42660216 L1.344,6.42660216 Z" id="Shape"></path>
        </g>
    </g>
</svg>