<?xml version="1.0" encoding="UTF-8"?>
<svg width="15.9258669px" height="11.6962105px" viewBox="0 0 15.9258669 11.6962105" version="1.1" xmlns="http://www.w3.org/2000/svg" xmlns:xlink="http://www.w3.org/1999/xlink">
    <title>Shape</title>
    <g id="Page-1" stroke="none" stroke-width="1" fill="none" fill-rule="evenodd">
        <g id="font4" fill="#7C7C7C" fill-rule="nonzero">
            <path d="M5.526,7.30421053 C5.04,7.32221053 4.644,7.39421053 4.032,7.46621053 C3.69,7.52021053 3.33,7.55621053 2.97,7.59221053 C4.06681606,5.8970341 5.26290317,4.26819186 6.552,2.71421053 C6.102,4.06421053 5.742,5.81021053 5.526,7.30421053 L5.526,7.30421053 Z M6.048,11.5342105 C6.372,11.6782105 6.606,11.6062105 6.606,11.2822105 C6.642,10.4002105 6.732,9.48221053 6.84,8.58221053 L7.47,8.69021053 C7.794,8.74421053 7.92,8.67221053 7.83,8.38421053 C7.704,8.00621053 7.524,7.66421053 7.038,7.44821053 C7.38,5.55821053 7.884,3.68621053 8.298,2.39021053 C8.406,2.12021053 8.442,1.86821053 8.442,1.65221053 C8.442,1.43621053 8.388,1.23821053 8.298,1.02221053 C8.19666904,0.757365194 8.05719685,0.508740852 7.884,0.284210526 C7.614,-0.0757894737 7.344,-0.0937894737 6.948,0.230210526 C5.058,1.83221053 2.574,5.30621053 1.224,7.66421053 C1.00710369,7.64911071 0.790920748,7.62509038 0.576,7.59221053 C0.108,7.52021053 0.036,7.62821053 0.18,7.97021053 C0.234,8.07821053 0.396,8.33021053 0.72,8.56421053 C0.558891104,8.87418236 0.414680114,9.1926483 0.288,9.51821053 C0.072,10.0402105 0,10.4542105 0,10.7422105 C0,11.0302105 0.108,11.1922105 0.216,11.4082105 C0.342,11.6602105 0.648,11.7322105 0.864,11.3542105 C1.278,10.6162105 1.674,9.71621053 2.16,8.87021053 C2.664,8.88821053 3.366,8.81621053 4.086,8.74421053 L5.346,8.61821053 C5.292,9.08621053 5.292,9.50021053 5.292,9.82421053 C5.31,10.8682105 5.652,11.3362105 6.048,11.5342105 L6.048,11.5342105 Z M8.766,7.10621053 C8.118,8.00621053 7.794,9.01421053 7.794,9.78821053 C7.794,10.8502105 8.37,11.6242105 9.432,11.6242105 C10.152,11.6242105 10.962,11.0662105 11.484,10.5622105 C11.628,11.2282105 12.15,11.6962105 13.05,11.6962105 C14.148,11.6962105 15.3,10.7422105 15.768,9.75221053 C16.02,9.23021053 15.912,8.74421053 15.84,8.58221053 C15.66,8.20421053 15.498,8.22221053 15.3,8.58221053 C14.706,9.75221053 13.806,10.9762105 13.158,10.9762105 C12.978,10.9762105 12.906,10.8142105 12.906,10.5442105 C12.906,9.33821053 14.418,7.37621053 14.886,6.38621053 C15.354,5.45021053 15.192,4.65821053 14.886,4.29821053 C14.67,4.04621053 14.364,4.06421053 14.148,4.42421053 L13.806,4.98221053 C13.644,4.51421053 13.248,4.19021053 12.6,4.19021053 C11.682,4.19021053 10.206,5.03621053 8.766,7.10621053 L8.766,7.10621053 Z M9.666,10.8322105 C9.486,10.8322105 9.414,10.6162105 9.414,10.2922105 C9.414,9.71621053 9.72,8.76221053 10.26,7.91621053 C11.178,6.44021053 12.42,5.30621053 12.78,5.30621053 C12.96,5.30621053 12.996,5.43221053 12.996,5.64821053 C12.996,6.11621053 12.672,6.99821053 11.97,8.22221053 C11.088,9.73421053 10.26,10.8322105 9.666,10.8322105 L9.666,10.8322105 Z" id="Shape"></path>
        </g>
    </g>
</svg>