<?xml version="1.0" encoding="UTF-8"?>
<svg width="21.15px" height="13.158px" viewBox="0 0 21.15 13.158" version="1.1" xmlns="http://www.w3.org/2000/svg" xmlns:xlink="http://www.w3.org/1999/xlink">
    <title>Shape</title>
    <g id="Page-1" stroke="none" stroke-width="1" fill="none" fill-rule="evenodd">
        <g id="font1" fill="#7C7C7C" fill-rule="nonzero">
            <path d="M12.699,13.014 L10.827,13.014 C10.6415201,13.0219649 10.4588477,12.9665989 10.309,12.857 C10.1772171,12.7559214 10.0761215,12.620204 10.017,12.465 L9.045,9.81 L3.654,9.81 L2.682,12.465 C2.62488973,12.6152695 2.52643161,12.7463159 2.398,12.843 C2.25108784,12.958931 2.06806493,13.0194666 1.881,13.014 L0,13.014 L5.112,0 L7.587,0 L12.699,13.014 Z M4.275,8.1 L8.424,8.1 L6.84,3.771 C6.75620768,3.54580454 6.67652778,3.3191002 6.601,3.091 C6.50808738,2.81000488 6.42272339,2.52656976 6.345,2.241 C6.261,2.547 6.178,2.832 6.097,3.096 C6.017,3.36 5.937,3.591 5.859,3.789 L4.275,8.1 Z M21.15,13.014 L20.151,13.014 C19.941,13.014 19.776,12.983 19.656,12.919 C19.536,12.857 19.446,12.729 19.386,12.537 L19.188,11.88 C18.954,12.09 18.724,12.275 18.499,12.434 C18.2800526,12.5894092 18.0466408,12.7233615 17.802,12.834 C17.562,12.942 17.307,13.023 17.037,13.077 C16.767,13.131 16.467,13.158 16.137,13.158 C15.747,13.158 15.387,13.105 15.057,13.001 C14.7435202,12.9049476 14.4538646,12.7437627 14.207,12.528 C13.9656236,12.3121403 13.7762267,12.0444548 13.653,11.745 C13.51462,11.3989564 13.4472837,11.0286065 13.455,10.656 C13.455,10.308 13.546,9.965 13.729,9.626 C13.912,9.286 14.217,8.98 14.643,8.708 C15.069,8.434 15.636,8.208 16.344,8.028 C17.052,7.848 17.931,7.746 18.981,7.722 L18.981,7.182 C18.981,6.564 18.851,6.107 18.589,5.81 C18.329,5.513 17.949,5.364 17.451,5.364 C17.091,5.364 16.791,5.406 16.551,5.49 C16.311,5.574 16.102,5.669 15.925,5.774 C15.748,5.879 15.585,5.973 15.435,6.057 C15.2837579,6.14131423 15.1131475,6.18474233 14.94,6.183 C14.8017756,6.18662507 14.6660645,6.14559616 14.553,6.066 C14.4465035,5.98965945 14.3575224,5.8914734 14.292,5.778 L13.887,5.067 C14.949,4.095 16.23,3.609 17.73,3.609 C18.27,3.609 18.751,3.698 19.174,3.875 C19.5814031,4.04106011 19.9483561,4.29274355 20.25,4.613 C20.544,4.928 20.767,5.304 20.92,5.742 C21.073,6.18 21.15,6.66 21.15,7.182 L21.15,13.014 L21.15,13.014 Z M16.83,11.628 C17.058,11.628 17.268,11.607 17.46,11.565 C17.652,11.523 17.833,11.46 18.004,11.376 C18.175,11.292 18.34,11.188 18.499,11.066 C18.659,10.943 18.819,10.797 18.981,10.629 L18.981,9.072 C18.333,9.102 17.791,9.158 17.356,9.239 C16.922,9.319 16.572,9.423 16.308,9.549 C16.044,9.675 15.857,9.822 15.745,9.99 C15.6359318,10.1522447 15.5781009,10.3435048 15.5789897,10.539 C15.5789897,10.929 15.694,11.208 15.925,11.376 C16.157,11.544 16.458,11.628 16.83,11.628 L16.83,11.628 Z" id="Shape"></path>
        </g>
    </g>
</svg>