<svg width="46" height="47" xmlns="http://www.w3.org/2000/svg"><g fill-rule="nonzero" fill="none"><path d="M37.375 46.503H8.625A8.625 8.625 0 0 1 0 37.878V9.128A8.625 8.625 0 0 1 8.625.503h28.75A8.625 8.625 0 0 1 46 9.128v28.75a8.625 8.625 0 0 1-8.625 8.625Z" fill="#FAFAFA"/><path d="M35.862 44.082H10.138a7.717 7.717 0 0 1-7.717-7.717V10.64a7.717 7.717 0 0 1 7.717-7.717h25.724a7.717 7.717 0 0 1 7.717 7.717v25.724a7.717 7.717 0 0 1-7.717 7.717Z" stroke-opacity=".5" stroke="#7539BF" fill="#7539BF"/><g fill="#FFF"><path d="M26.595 36.484H22.05l-.728 2.15h-3.105l4.406-12.175h3.434l4.405 12.176h-3.139l-.728-2.151Zm-.764-2.29-1.509-4.457-1.491 4.458h3ZM34.763 26.46v12.174h-2.966V26.46zM15.35 33.791v4.324c.001.288-.183.517-.472.52-.292 0-.578-.234-.58-.52v-4.177l1.052-.147ZM17.938 8.45c.18-.113.255-.114.423.064.267.283.424.64.573 1.01.591 1.47.854 3.04 1.071 4.522.11.737.178 1.482.236 2.18a.86.86 0 0 1-.073.429c-.177.407-.385.799-.594 1.18l-.974 1.169a.523.523 0 1 0 .803.67l.867-1.04c.048.02.085.041.084.186a44.647 44.647 0 0 1-.204 4.7c-.017.19-.141.347-.284.529-.267.335-.551.628-.85.937l-.171.177c-.206.162-.729.634-1.596 1.442a.524.524 0 0 0 .714.767c.58-.54 1.21-1.115 1.447-1.319.09.003.156.01.2.037.118.074.114.117.096.192-.648 2.726-1.82 4.952-3.585 6.806a8.214 8.214 0 0 1-.778.661c-.023-3.008.004-6.554.289-8.489.549-3.738 1.133-7.37 2.254-10.675a.524.524 0 0 0-.992-.336c-1.147 3.388-1.741 7.07-2.297 10.859-.232 1.571-.3 4.05-.307 6.53v.93c.002.462.004.92.008 1.37-.293-.163-.567-.336-.66-.43a4.52 4.52 0 0 1-.809-1.087c-1.04-1.996-1.345-4.225-1.507-6.141a25.513 25.513 0 0 1 .055-4.747c.006-.062.021-.094.034-.135l.908 1.12a.523.523 0 1 0 .814-.66l-1.165-1.438-.065-.119c-.192-.357-.22-.679-.086-1.076.587-1.769 1.489-3.394 2.218-4.624l.128.907a.523.523 0 1 0 1.036-.146l-.191-1.348-.023-.804a1.559 1.559 0 0 1 .116-.66c.64-1.492 1.401-2.7 2.331-3.69.13-.138.274-.26.506-.41Z"/></g></g></svg>