<svg width="30" height="28" xmlns="http://www.w3.org/2000/svg"><g fill="#000" fill-rule="nonzero"><path d="M27.599 20.125a13.546 13.546 0 0 0 1.4-5.994C29.086 6.387 22.874.087 15.131 0h-.35C7.037.044.825 6.388.868 14.087.912 21.787 7.255 28.043 14.999 28c2.538 0 4.288-1.926 5.25-5.732.481-2.143.788-4.33.831-6.518h4.288c-.219 1.225-.613 2.406-1.269 3.5l-.525.875H27.6ZM17.58 12.25h-5.162C12.637 7.262 13.687 3.5 15 3.5c1.313 0 2.363 3.762 2.581 8.75Zm0 3.5c-.218 4.943-1.268 8.75-2.58 8.75-1.313 0-2.363-3.807-2.582-8.75h5.162Zm-12.906 0h4.244c.044 2.187.35 4.374.831 6.518.088.35.175.656.263.963l-.263-.132c-2.712-1.575-4.593-4.287-5.075-7.35Zm5.338-10.982c-.088.307-.175.613-.263.963-.481 2.144-.787 4.331-.831 6.519H4.674c.22-1.225.613-2.407 1.269-3.5.919-1.707 2.362-3.063 4.069-3.982Zm15.312 7.482H21.08c-.043-2.188-.35-4.375-.831-6.52-.088-.35-.175-.655-.262-.962l.262.132c2.713 1.575 4.594 4.243 5.075 7.35ZM27.249 25.812a2.187 2.187 0 1 1-4.375 0 2.187 2.187 0 0 1 4.375 0"/></g></svg>