<svg width="29" height="28" xmlns="http://www.w3.org/2000/svg"><g fill-rule="nonzero" fill="none"><path d="m13.15 26.486-1.493 1.05a2.543 2.543 0 0 1-3.97-1.644l-.31-1.796a3.111 3.111 0 0 0-2.533-2.531l-1.797-.313a2.543 2.543 0 0 1-1.644-3.97l1.05-1.493a3.111 3.111 0 0 0 0-3.578l-1.05-1.493a2.543 2.543 0 0 1 1.644-3.97l1.797-.311a3.111 3.111 0 0 0 2.53-2.533l.314-1.796a2.543 2.543 0 0 1 3.97-1.644l1.493 1.05a3.111 3.111 0 0 0 3.577 0l1.494-1.05a2.543 2.543 0 0 1 3.97 1.644l.31 1.796a3.111 3.111 0 0 0 2.533 2.531l1.797.313a2.543 2.543 0 0 1 1.644 3.97l-1.05 1.493a3.111 3.111 0 0 0 0 3.578l1.05 1.493a2.543 2.543 0 0 1-1.644 3.97l-1.797.311a3.111 3.111 0 0 0-2.53 2.533l-.313 1.796a2.543 2.543 0 0 1-3.97 1.644l-1.494-1.05a3.111 3.111 0 0 0-3.577 0Z" fill="#000"/><path d="M13.57 19.022a1.086 1.086 0 0 1-1.503-.034l-3.733-3.735a1.087 1.087 0 1 1 1.537-1.536l2.997 3 7.185-5.747a1.086 1.086 0 0 1 1.466 1.6l-7.948 6.452Z" fill="#FFF"/></g></svg>