<svg width="46" height="46" xmlns="http://www.w3.org/2000/svg"><g transform="translate(0 .003)" fill="none" fill-rule="evenodd"><circle fill="#541D9B" cx="23" cy="23" r="23"/><g fill="#FFF" fill-rule="nonzero"><path d="M34.652 28.635a12.462 12.462 0 0 0 1.288-5.514c.08-7.125-5.635-12.92-12.76-13.001h-.321c-7.124.04-12.84 5.877-12.8 12.96.04 7.084 5.877 12.84 13.001 12.8 2.335 0 3.945-1.771 4.83-5.273.443-1.972.725-3.985.765-5.997h3.944c-.201 1.127-.563 2.214-1.167 3.22l-.483.805h3.703Zm-9.217-7.245h-4.75c.202-4.589 1.168-8.05 2.375-8.05 1.208 0 2.173 3.461 2.375 8.05Zm0 3.22c-.202 4.548-1.167 8.05-2.375 8.05-1.207 0-2.173-3.502-2.375-8.05h4.75Zm-11.874 0h3.904c.04 2.012.322 4.024.765 5.997.08.322.161.603.242.885l-.242-.12c-2.495-1.45-4.226-3.945-4.669-6.763Zm4.91-10.103c-.08.282-.16.563-.24.885-.444 1.973-.725 3.985-.766 5.998h-3.904c.201-1.127.564-2.214 1.167-3.22.846-1.57 2.174-2.818 3.744-3.663ZM32.56 21.39h-3.904c-.04-2.013-.322-4.025-.765-5.998-.08-.322-.161-.603-.242-.885l.242.12c2.496 1.45 4.226 3.905 4.669 6.763ZM34.33 33.867a2.012 2.012 0 1 1-4.025 0 2.012 2.012 0 0 1 4.025 0"/></g></g></svg>