<svg width="29" height="28" xmlns="http://www.w3.org/2000/svg"><path d="M14.732.241c7.604 0 13.825 6.222 13.825 13.826s-6.221 13.826-13.825 13.826C7.127 27.893.906 21.67.906 14.067S7.127.241 14.732.241Zm0 1.152c-2.478 0-4.782.692-6.798 1.901 2.42.692 1.786.807 3.399-.403.115-.057.23-.115.345-.115 1.556 0 .922-.115 3.342.922 1.152.46-.519 1.498-.173 2.246.115.346-.058.75-.403.865-1.96.576-1.037.115-3.457 1.785-.46.288-.058.807-.576 1.095-2.016 1.094-1.21.922-3.226.922-.576 0-.576.576-.922 1.785-.057.404-.518.577-.864.404-2.189-1.21-1.555-.461-2.592-3.054a13.34 13.34 0 0 0-.749 4.321c0 6.97 5.703 12.674 12.674 12.674 4.09 0 7.777-1.959 10.023-4.955 0-.633-.806-.576-.691-1.21l.058-.287c.115-.519-.577-.576-.346-1.153.46-1.21.518-.921-.23-1.958-.058-.115-.116-.23-.116-.346V15.45c-.345 0-.633.057-.864-.173-.749-.922-1.9.576-2.535 0-1.67-1.498-1.267-.75-1.555-3.226-.058-.75 1.498-.98 1.613-1.613.115-.461.115-.922.634-.922.942 0 .948.027 1.403-.102l.21-.06c.2-.058.471-.136.864-.241.345-.058.691.173.691.518l.009.105c.073.422.6.48 1.028.587.346.115.519-.173.807-.461.23-.288.518-.173.921 0-.173-.519-.403-.98-.633-1.44-.116.057-.288.115-.404.23-.403.46-1.037 0-2.534-.634a6.034 6.034 0 0 0-.634-.46c-.346-.231-.346-.807.058-1.038 1.44-.748-.577-1.324.46-2.073a12.512 12.512 0 0 0-8.237-3.054ZM10.41 13.894c.288-.46.749-.115 1.21.115.403.173.691-.172.98.23l.402.577c.346.46.98-.058 1.152.576.23.749.058.576.98 1.037.403.23 1.152-.173 1.498.173.288.288.576.518.345.864l-.345.749c-.173.345.057 1.382-.173 1.67-.576.692-.461.692-1.325.404.057 1.497.288.921-1.037 2.707-.058.173-.461.288-.634.403-.288.173-.345.519-.173.75.634.806.519.518.519 1.728 0 .576-.749.69-1.037.345-.16-.166-.302-.31-.426-.435l-.323-.323c-.672-.676-.527-.596-.346-1.546.116-.634-.749-.519-.518-1.152.288-1.037.288-.461-.115-2.938-.116-.576-1.268-.576-1.268-1.21 0-.518.173-.403-.806-1.152-.288-.23-.173-.576-.173-1.325 0-.346.288-.461.576-.634.173-.115.922-1.44 1.037-1.613Z" fill="#8E78E7" fill-rule="nonzero"/></svg>