<svg width="46" height="46" xmlns="http://www.w3.org/2000/svg" xmlns:xlink="http://www.w3.org/1999/xlink"><defs><path d="M2.422 0h19.373c1.332 0 2.422 1.06 2.422 2.356v14.139c0 1.296-1.09 2.356-2.422 2.356H2.422C1.09 18.851 0 17.791 0 16.495V2.356C0 1.06 1.09 0 2.422 0Z" id="a"/></defs><g fill="none" fill-rule="evenodd"><path d="M37.375 46.003H8.625A8.625 8.625 0 0 1 0 37.378V8.628A8.625 8.625 0 0 1 8.625.003h28.75A8.625 8.625 0 0 1 46 8.628v28.75a8.625 8.625 0 0 1-8.625 8.625Z" fill="#000" fill-rule="nonzero"/><g transform="translate(10.892 13.578)"><mask id="b" fill="#fff"><use xlink:href="#a"/></mask><use stroke="#FFF" stroke-width="2.2" fill="#000" stroke-linecap="round" stroke-linejoin="round" xlink:href="#a"/><path stroke="#FFF" stroke-width="2.2" stroke-linecap="round" stroke-linejoin="round" mask="url(#b)" d="m24.217 2.356-12.109 8.248L0 2.356"/></g></g></svg>