<svg width="19" height="19" xmlns="http://www.w3.org/2000/svg"><g fill-rule="nonzero" fill="none"><path d="M18.528 5.301c-.042-.954-.196-1.61-.417-2.179a4.383 4.383 0 0 0-1.04-1.593A4.42 4.42 0 0 0 15.483.494c-.571-.22-1.224-.375-2.178-.417C12.342.03 12.037.02 9.598.02 7.16.02 6.854.03 5.896.073c-.954.042-1.61.197-2.178.418a4.382 4.382 0 0 0-1.593 1.038c-.457.45-.81.993-1.036 1.59C.87 3.69.714 4.343.672 5.298.626 6.259.616 6.564.616 9.003s.01 2.744.052 3.702c.042.954.197 1.61.418 2.179a4.43 4.43 0 0 0 1.039 1.593c.449.456.993.81 1.589 1.035.572.22 1.225.375 2.179.417.958.042 1.263.053 3.702.053 2.438 0 2.744-.01 3.702-.053.954-.042 1.61-.196 2.178-.417a4.594 4.594 0 0 0 2.629-2.628c.22-.572.375-1.225.417-2.18.042-.957.053-1.262.053-3.701s-.004-2.744-.046-3.702Z" fill="#000"/><path d="M9.598 4.389a4.615 4.615 0 0 0 0 9.228 4.615 4.615 0 0 0 0-9.228Zm0 7.607A2.993 2.993 0 1 1 9.6 6.009a2.993 2.993 0 0 1 0 5.987ZM15.472 4.207a1.077 1.077 0 1 1-2.155 0 1.077 1.077 0 0 1 2.155 0Z" fill="#FFF"/></g></svg>