<svg width="53" height="52" xmlns="http://www.w3.org/2000/svg"><g fill="none" fill-rule="evenodd"><path d="m36.148 31.702-3.135 16.561a.3.3 0 0 1-.59-.01L30.266 34.05 9.977 11.07l.91-2.316 7.364 4.035L36.733 29.85l-.585 1.85Z" fill="#ABABE5"/><path d="M3.015 3.213a.974.974 0 0 1 1.399-1.089l43.856 20.73a2.846 2.846 0 0 1 .194 4.924l-11.731 3.97a.487.487 0 0 1-.585-.046c-.108-.096-8.164-7.1-24.166-21.012a.485.485 0 0 0-.703.666l18.888 22.31a.487.487 0 0 1-.12.714l-17.77 6.587a2.833 2.833 0 0 1-4.267-1.743L3.015 3.214Z" fill="#DBDBF8" fill-rule="nonzero"/></g></svg>