<svg width="53" height="53" xmlns="http://www.w3.org/2000/svg"><g fill="none" fill-rule="evenodd"><path d="m16.63 32.199 3.134 16.561a.3.3 0 0 0 .591-.01l2.156-14.203 20.29-22.98-.91-2.316-7.365 4.035-18.481 17.062.584 1.85Z" fill="#ABABE5"/><path d="M49.762 3.71a.974.974 0 0 0-1.399-1.089L4.508 23.351a2.846 2.846 0 0 0-.195 4.924l11.732 3.97a.487.487 0 0 0 .584-.046c.108-.096 8.164-7.1 24.166-21.012a.485.485 0 0 1 .704.666l-18.89 22.31a.487.487 0 0 0 .122.714l17.77 6.587a2.833 2.833 0 0 0 4.266-1.743l4.995-36.01Z" fill="#DBDBF8" fill-rule="nonzero"/></g></svg>