<svg width="40" height="40" xmlns="http://www.w3.org/2000/svg" xmlns:xlink="http://www.w3.org/1999/xlink"><defs><filter x="-3%" y="-3%" width="105.9%" height="105.9%" filterUnits="objectBoundingBox" id="b"><feGaussianBlur stdDeviation=".5" in="SourceAlpha" result="shadowBlurInner1"/><feOffset dy="1" in="shadowBlurInner1" result="shadowOffsetInner1"/><feComposite in="shadowOffsetInner1" in2="SourceAlpha" operator="arithmetic" k2="-1" k3="1" result="shadowInnerInner1"/><feColorMatrix values="0 0 0 0 0.62745098 0 0 0 0 0.62745098 0 0 0 0 0.62745098 0 0 0 0.188312664 0" in="shadowInnerInner1" result="shadowMatrixInner1"/><feGaussianBlur stdDeviation=".5" in="SourceAlpha" result="shadowBlurInner2"/><feOffset dx="-1" in="shadowBlurInner2" result="shadowOffsetInner2"/><feComposite in="shadowOffsetInner2" in2="SourceAlpha" operator="arithmetic" k2="-1" k3="1" result="shadowInnerInner2"/><feColorMatrix values="0 0 0 0 0.643137255 0 0 0 0 0.384313725 0 0 0 0 0.137254902 0 0 0 1 0" in="shadowInnerInner2" result="shadowMatrixInner2"/><feMerge><feMergeNode in="shadowMatrixInner1"/><feMergeNode in="shadowMatrixInner2"/></feMerge></filter><circle id="a" cx="20" cy="20" r="16.889"/></defs><g transform="translate(0 .003)" fill="none" fill-rule="evenodd"><circle fill="#A46223" opacity=".807" cx="20" cy="20" r="20"/><use fill="#A46223" xlink:href="#a"/><use fill="#000" filter="url(#b)" xlink:href="#a"/><path d="M21.754 31.034v-2.458c1.706-.29 2.965-.913 3.776-1.869.81-.956 1.216-2.065 1.216-3.328 0-1.314-.431-2.355-1.293-3.123-.862-.768-2.198-1.357-4.007-1.766v-4.25c.615.137 1.135.341 1.562.614.427.273.794.58 1.1.922l2.33-2.1a6.426 6.426 0 0 0-1.996-1.548c-.768-.384-1.664-.636-2.688-.755V8.966h-2.919v2.407c-1.655.188-2.914.708-3.776 1.561-.862.854-1.293 1.955-1.293 3.303 0 1.246.419 2.287 1.255 3.123.836.836 2.218 1.45 4.147 1.843v4.608a5.655 5.655 0 0 1-1.971-.653 7.034 7.034 0 0 1-1.639-1.267l-2.304 2.1a8.532 8.532 0 0 0 2.304 1.791c.888.478 1.98.777 3.277.896v2.356h2.919Zm-2.586-13.056c-.649-.188-1.122-.419-1.42-.692-.3-.273-.449-.657-.449-1.152 0-.495.15-.908.448-1.241.299-.333.772-.568 1.421-.704v3.789Zm2.278 7.782v-4.045c.734.222 1.212.508 1.434.858.222.35.333.712.333 1.088 0 .495-.145.926-.435 1.293-.29.367-.734.635-1.332.806Z" fill="#FFF" fill-rule="nonzero"/></g></svg>