<svg width="21" height="17" xmlns="http://www.w3.org/2000/svg"><path d="M19.529 2.296a7.56 7.56 0 0 1-2.175.596A3.793 3.793 0 0 0 19.019.797a7.586 7.586 0 0 1-2.405.92A3.78 3.78 0 0 0 13.85.52c-2.445 0-4.241 2.28-3.69 4.649a10.75 10.75 0 0 1-7.804-3.957A3.792 3.792 0 0 0 3.528 6.27a3.77 3.77 0 0 1-1.715-.473C1.772 7.55 3.03 9.19 4.85 9.556a3.796 3.796 0 0 1-1.71.065 3.79 3.79 0 0 0 3.538 2.63 7.614 7.614 0 0 1-5.607 1.568 10.72 10.72 0 0 0 5.805 1.702c7.031 0 11.003-5.938 10.763-11.264a7.71 7.71 0 0 0 1.89-1.96Z" fill="#000" fill-rule="nonzero"/></svg>