<svg width="33" height="33" xmlns="http://www.w3.org/2000/svg"><path d="m14.28 30.541-1.707 1.2a2.907 2.907 0 0 1-4.537-1.88l-.355-2.052a3.556 3.556 0 0 0-2.895-2.893l-2.053-.357a2.907 2.907 0 0 1-1.88-4.537l1.2-1.707a3.556 3.556 0 0 0 0-4.089l-1.2-1.706a2.907 2.907 0 0 1 1.88-4.537l2.053-.356A3.556 3.556 0 0 0 7.68 4.733l.357-2.053A2.907 2.907 0 0 1 12.573.8L14.28 2a3.556 3.556 0 0 0 4.089 0L20.075.8a2.907 2.907 0 0 1 4.537 1.88l.356 2.053a3.556 3.556 0 0 0 2.894 2.893l2.053.357a2.907 2.907 0 0 1 1.88 4.537l-1.2 1.706a3.556 3.556 0 0 0 0 4.09l1.2 1.706a2.907 2.907 0 0 1-1.88 4.537l-2.053.355a3.556 3.556 0 0 0-2.893 2.895l-.357 2.053a2.907 2.907 0 0 1-4.537 1.879l-1.706-1.2a3.556 3.556 0 0 0-4.09 0Z" fill="#20D860" fill-rule="nonzero"/></svg>