<svg width="40" height="40" xmlns="http://www.w3.org/2000/svg"><g fill-rule="nonzero" fill="none"><path d="m17.444 37.84-2.133 1.5a3.633 3.633 0 0 1-5.67-2.348l-.445-2.567a4.444 4.444 0 0 0-3.618-3.615l-2.567-.447a3.633 3.633 0 0 1-2.349-5.671l1.5-2.133a4.444 4.444 0 0 0 0-5.112l-1.5-2.133a3.633 3.633 0 0 1 2.35-5.67l2.566-.445A4.444 4.444 0 0 0 9.193 5.58l.447-2.567A3.633 3.633 0 0 1 15.311.665l2.133 1.5a4.444 4.444 0 0 0 5.112 0l2.133-1.5a3.633 3.633 0 0 1 5.67 2.35l.445 2.566a4.444 4.444 0 0 0 3.618 3.615l2.567.447a3.633 3.633 0 0 1 2.349 5.671l-1.5 2.133a4.444 4.444 0 0 0 0 5.112l1.5 2.133a3.633 3.633 0 0 1-2.35 5.67l-2.566.445a4.444 4.444 0 0 0-3.615 3.618l-.447 2.567a3.633 3.633 0 0 1-5.671 2.349l-2.133-1.5a4.444 4.444 0 0 0-5.112 0Z" fill="#25814E"/><path d="M18.045 27.177a1.55 1.55 0 0 1-2.148-.048l-5.333-5.336a1.552 1.552 0 0 1 2.195-2.195l4.281 4.287 10.265-8.211A1.55 1.55 0 0 1 29.4 17.96l-11.355 9.216Z" fill="#FFF"/></g></svg>